<?xml version="1.0" encoding="UTF-8"?>
<svg version="1.1" xmlns="http://www.w3.org/2000/svg" width="111" height="111">
<path d="M0 0 C0.82951172 0.69029297 0.82951172 0.69029297 1.67578125 1.39453125 C0.96319793 6.09260967 -0.86995996 9.23677622 -3.36328125 13.2109375 C-4.53778548 15.87983126 -4.29631769 16.69517807 -3.32421875 19.39453125 C-2.03282601 21.09531813 -2.03282601 21.09531813 -0.3828125 22.62890625 C0.49213867 23.48935547 0.49213867 23.48935547 1.38476562 24.3671875 C2.30225586 25.24697266 2.30225586 25.24697266 3.23828125 26.14453125 C3.85380859 26.74652344 4.46933594 27.34851563 5.10351562 27.96875 C6.62092938 29.45087506 8.14748721 30.92362795 9.67578125 32.39453125 C13.52974804 30.91583913 17.03476337 29.14333782 20.61328125 27.1015625 C23.40646237 26.14405155 24.92371194 26.35126315 27.67578125 27.39453125 C29.00390625 29.46875 29.00390625 29.46875 29.92578125 32.08203125 C30.2403125 32.93152344 30.55484375 33.78101563 30.87890625 34.65625 C34.58099618 47.37764725 34.02947008 62.59876982 27.67578125 74.39453125 C22.23208517 75.092441 19.2389749 73.24859872 14.82421875 70.390625 C12.76204763 69.22320412 12.76204763 69.22320412 10.6484375 69.54296875 C6.67576317 71.25790539 3.76409112 74.43413954 0.67578125 77.39453125 C0.11503906 77.91789062 -0.44570312 78.44125 -1.0234375 78.98046875 C-2.66861037 80.58649159 -2.66861037 80.58649159 -4.32421875 83.39453125 C-3.76517118 87.14813638 -2.08624941 89.78561166 -0.13671875 92.95703125 C1.85754332 96.73925241 1.72627874 97.48025718 0.67578125 101.39453125 C-1.17565269 102.04815735 -3.03052633 102.69204343 -4.88671875 103.33203125 C-5.91925781 103.69167969 -6.95179687 104.05132812 -8.015625 104.421875 C-20.8644292 108.19915038 -34.11253396 106.36709229 -46.32421875 101.39453125 C-46.65370936 95.80926359 -45.31244441 93.18963855 -42.3203125 88.640625 C-41.16549898 86.4415899 -41.16549898 86.4415899 -41.3125 84.015625 C-42.77788174 80.2192113 -45.21011615 77.84953739 -48.07421875 75.01953125 C-48.60015625 74.46136719 -49.12609375 73.90320313 -49.66796875 73.328125 C-51.4060882 71.51511502 -51.4060882 71.51511502 -54.32421875 69.39453125 C-58.50202671 69.42538655 -61.62042432 71.51000099 -65.1640625 73.5546875 C-67.95649432 74.64035267 -70.35607451 74.5254167 -73.32421875 74.39453125 C-73.97582887 72.521531 -74.6202407 70.64602575 -75.26171875 68.76953125 C-75.62136719 67.72539063 -75.98101562 66.68125 -76.3515625 65.60546875 C-79.81176104 54.18264467 -78.72451746 42.72886029 -75.32421875 31.39453125 C-73.71875 28.48046875 -73.71875 28.48046875 -72.32421875 26.39453125 C-67.11285331 26.79540551 -63.75356794 28.74490221 -59.47265625 31.53125 C-57.3459615 32.65809431 -57.3459615 32.65809431 -55.2265625 31.671875 C-49.30969387 27.69894678 -44.87915718 22.82541937 -40.32421875 17.39453125 C-40.75734375 16.67007812 -41.19046875 15.945625 -41.63671875 15.19921875 C-42.19359375 14.23242188 -42.75046875 13.265625 -43.32421875 12.26953125 C-43.88109375 11.31820313 -44.43796875 10.366875 -45.01171875 9.38671875 C-46.44052529 6.12938003 -46.57463184 3.91074835 -46.32421875 0.39453125 C-44.76401008 -0.256818 -43.20093296 -0.90129839 -41.63671875 -1.54296875 C-40.76660156 -1.90261719 -39.89648438 -2.26226562 -39 -2.6328125 C-28.10615708 -6.59276416 -9.79818461 -6.76815777 0 0 Z M-25.609375 42.58203125 C-26.52589844 43.51015625 -27.44242188 44.43828125 -28.38671875 45.39453125 C-29.76537109 46.78671875 -29.76537109 46.78671875 -31.171875 48.20703125 C-31.88214844 48.92890625 -32.59242187 49.65078125 -33.32421875 50.39453125 C-32.55722656 51.15121094 -31.79023437 51.90789063 -31 52.6875 C-28.24083479 55.47888904 -25.79867911 58.35447996 -23.32421875 61.39453125 C-22.23582101 60.50485781 -21.15377267 59.60741551 -20.07421875 58.70703125 C-19.4709375 58.20816406 -18.86765625 57.70929687 -18.24609375 57.1953125 C-16.01327635 55.10318075 -14.18882217 52.81604056 -12.32421875 50.39453125 C-13.96703037 48.72488604 -15.61354636 47.05888485 -17.26171875 45.39453125 C-18.17824219 44.46640625 -19.09476563 43.53828125 -20.0390625 42.58203125 C-22.82421875 39.65655902 -22.82421875 39.65655902 -25.609375 42.58203125 Z " fill="#014F8C" transform="translate(78.32421875,4.60546875)"/>
<path d="M0 0 C5.66129431 4.69766975 10.85228904 9.74723372 16 15 C19.85396679 13.52130788 23.35898212 11.74880657 26.9375 9.70703125 C29.73068112 8.7495203 31.24793069 8.9567319 34 10 C35.328125 12.07421875 35.328125 12.07421875 36.25 14.6875 C36.56453125 15.53699219 36.8790625 16.38648437 37.203125 17.26171875 C40.90521493 29.983116 40.35368883 45.20423857 34 57 C21.54737314 57.80339528 9.36073518 45.27361195 0 38 C-1.0003125 37.22785156 -2.000625 36.45570312 -3.03125 35.66015625 C-12.33080541 28.36336654 -12.33080541 28.36336654 -16 24 C-15.86194026 19.81218801 -12.7579711 16.8105233 -10.25 13.6875 C-9.34026697 12.53194136 -8.4314045 11.37569679 -7.5234375 10.21875 C-7.08741211 9.66574219 -6.65138672 9.11273438 -6.20214844 8.54296875 C-4.03624836 5.76301576 -2.01593442 2.88950601 0 0 Z " fill="#014F8C" transform="translate(72,22)"/>
<path d="M0 0 C0.82951172 0.69029297 0.82951172 0.69029297 1.67578125 1.39453125 C-0.3096819 13.67822086 -9.89626923 23.85264871 -17.32421875 33.39453125 C-18.46697266 34.87953125 -18.46697266 34.87953125 -19.6328125 36.39453125 C-28.72430982 48.0203056 -28.72430982 48.0203056 -32.32421875 50.39453125 C-36.49333541 50.33149925 -39.53235197 47.13752006 -42.63671875 44.64453125 C-43.79227739 43.73479822 -44.94852196 42.82593575 -46.10546875 41.91796875 C-46.65847656 41.48194336 -47.21148437 41.04591797 -47.78125 40.59667969 C-50.56120299 38.43077961 -53.43471274 36.41046567 -56.32421875 34.39453125 C-52.81273618 30.20729946 -49.19027291 26.26058541 -45.32421875 22.39453125 C-43.61691847 20.42456938 -41.97019369 18.41672904 -40.32421875 16.39453125 C-40.75734375 15.74226563 -41.19046875 15.09 -41.63671875 14.41796875 C-47.16780399 5.73723775 -47.16780399 5.73723775 -46.32421875 0.39453125 C-44.76401008 -0.256818 -43.20093296 -0.90129839 -41.63671875 -1.54296875 C-40.76660156 -1.90261719 -39.89648438 -2.26226562 -39 -2.6328125 C-28.10615708 -6.59276416 -9.79818461 -6.76815777 0 0 Z " fill="#E9C782" transform="translate(78.32421875,4.60546875)"/>
<path d="M0 0 C1.010625 0.763125 2.02125 1.52625 3.0625 2.3125 C9.66473342 7.2671598 16.33860493 12.12538538 23 17 C20.70300032 19.30094641 18.40613339 21.6013262 16.0859375 23.87890625 C14.37046761 25.56695995 12.68307334 27.27970883 11 29 C10.319375 29.680625 9.63875 30.36125 8.9375 31.0625 C7.72143417 33.07853943 7.72143417 33.07853943 8.5625 35.8125 C9.66206186 38.25065891 10.78821326 40.31189896 12.1875 42.5625 C14.18176207 46.34472116 14.05049749 47.08572593 13 51 C11.14856606 51.6536261 9.29369242 52.29751218 7.4375 52.9375 C5.88869141 53.47697266 5.88869141 53.47697266 4.30859375 54.02734375 C-8.54021045 57.80461913 -21.78831521 55.97256104 -34 51 C-34.65496286 38.44654518 -23.36087097 27.38851829 -16 18 C-15.3503125 17.17024658 -15.3503125 17.17024658 -14.6875 16.32373047 C-10.11964545 10.527899 -5.37354513 5.06253609 0 0 Z " fill="#E9C782" transform="translate(66,55)"/>
<path d="M0 0 C5.19865712 1.41926529 8.95555136 3.75424601 13.25 6.875 C13.87390625 7.30941406 14.4978125 7.74382812 15.140625 8.19140625 C18.29521999 10.45537205 20.71038434 12.2531437 22 16 C20.30099815 17.01577335 18.59029549 18.0119898 16.875 19 C15.92367188 19.556875 14.97234375 20.11375 13.9921875 20.6875 C10.73484878 22.11630654 8.5162171 22.25041309 5 22 C2.28451906 14.64925625 0.34740339 7.85131668 0 0 Z " fill="#E8C682" transform="translate(0,57)"/>
<path d="M0 0 C4.23128274 6.04824533 4.72779576 13.84102848 5 21 C-3.20431878 17.98828804 -10.50777233 12.79036522 -17 7 C-12.71200023 1.9973336 -6.68456506 -2.46158288 0 0 Z " fill="#E8C682" transform="translate(106,32)"/>
<path d="M0 0 C2.42203298 2.23681869 4.09674812 4.52557175 5.75 7.375 C6.19859375 8.12523438 6.6471875 8.87546875 7.109375 9.6484375 C8.19248672 12.50823249 7.83882342 14.10503623 7 17 C-0.04349737 19.56235522 -6.50559651 21.5003731 -14 22 C-12.42973179 17.53534553 -10.12856125 13.81322001 -7.5625 9.875 C-7.16740234 9.25496094 -6.77230469 8.63492188 -6.36523438 7.99609375 C-4.46630988 5.05765817 -2.63639767 2.32274264 0 0 Z " fill="#02508C" transform="translate(72,89)"/>
<path d="M0 0 C-1.42730041 5.21205204 -3.77274534 9.04269685 -6.875 13.375 C-7.30941406 14.01566406 -7.74382813 14.65632812 -8.19140625 15.31640625 C-9.4921875 17.1484375 -9.4921875 17.1484375 -12 20 C-13.32 20 -14.64 20 -16 20 C-21.74031891 10.77448747 -21.74031891 10.77448747 -21 5 C-19.43979133 4.34865075 -17.87671421 3.70417036 -16.3125 3.0625 C-15.44238281 2.70285156 -14.57226562 2.34320313 -13.67578125 1.97265625 C-9.03541136 0.28586486 -4.92390009 -0.1145093 0 0 Z " fill="#01508C" transform="translate(53,0)"/>
</svg>
